<svg xmlns="http://www.w3.org/2000/svg" viewBox="0 0 96 96" xml:space="preserve"><path d="M49.015.803c-.133-1.071-1.896-1.071-2.029 0C42.57 36.344 20 43.666 20 68.367 20 83.627 32.816 96 48 96s28-12.373 28-27.633C76 43.666 53.43 36.344 49.015.803zM44.751 40.09c-.297 1.095-.615 2.223-.942 3.386-2.007 7.123-4.281 15.195-4.281 24.537 0 5.055-2.988 6.854-5.784 6.854-3.189 0-5.782-2.616-5.782-5.831 0-11.034 5.315-18.243 10.005-24.604 1.469-1.991 2.855-3.873 3.983-5.749.516-.856 1.903-.82 2.533.029.298.404.396.907.268 1.378z" fill="#030104"/></svg>